
<svg width="290px" height="90px" viewBox="0 0 290 90" version="1.1" xmlns="http://www.w3.org/2000/svg" xmlns:xlink="http://www.w3.org/1999/xlink">
    <!-- Generator: Sketch 43.1 (39012) - http://www.bohemiancoding.com/sketch -->
    <desc>Created with Sketch.</desc>
    <defs></defs>
    <g id="Page-1" stroke="none" stroke-width="1" fill="none" fill-rule="evenodd">
        <g id="团队风采">
            <g id="Group">
                <circle id="bg" fill="#DDECFF" cx="45" cy="45" r="45"></circle>
                <g id="导师" transform="translate(20.000000, 17.000000)" fill-rule="nonzero" fill="#569FFC">
                    <path d="M23.3359494,53.5018354 L27.1671329,51.5227089 L24.4547911,38.9351772 L25.3396266,37.3794304 L25.2723342,35.7908418 C23.5832962,35.6929797 23.0875114,35.6929797 21.3985367,35.7908418 L21.3311152,37.3794304 L22.2148494,38.9351772 L19.5025076,51.5227089 L23.3359494,53.5018354 Z" id="Shape"></path>
                    <path d="M11.7229747,22.7848101 C12.6948544,26.3013544 14.0901772,28.9402532 15.8355633,30.8411392 C17.7376203,32.9108734 20.0251582,34.0846329 22.6139177,34.5497848 L22.8464285,34.5901989 L23.079069,34.5400051 C25.9455563,33.8962266 28.2343918,32.6648912 30.0604614,30.6171127 C31.752088,28.7162899 33.0141259,26.1496064 33.9418981,22.7261634 C34.7275753,22.2414532 35.3164297,21.4496191 35.7140943,20.4018342 C36.1511367,19.247638 36.3519108,17.7605368 36.324969,16.0040811 L36.3152541,15.3101127 L35.7692749,14.919702 C35.7031484,14.8695082 35.6394832,14.826633 35.5747173,14.7838222 C36.2980275,4.55135386 34.9405908,-1.34086133 23.3936414,0.302872848 C19.4756097,0.857401329 15.2185148,-0.365386646 12.7902237,1.52442981 C9.73876165,4.58437285 9.52224899,9.17430323 10.3496414,14.5610121 C10.1672597,14.6650266 9.98235215,14.7837431 9.80003506,14.9196874 L9.25535152,15.3100982 L9.24557184,16.0040665 C9.21862911,17.7984779 9.42918386,19.3125222 9.88455285,20.4716425 C10.2970253,21.5278481 10.9076582,22.3123418 11.7229747,22.7848101 Z M13.4341772,17.2157595 C13.4719359,17.0945816 13.508788,16.9537804 13.5490728,16.7971753 L13.5662358,16.8020975 L13.6176602,16.5144709 C13.8036691,15.7335216 14.0105969,14.7066545 14.1978361,13.9208444 C14.2701153,13.6882691 14.3496482,13.4630766 14.4378596,13.2427431 C17.1242963,15.4165532 21.9456444,15.6638317 26.0693153,11.7776672 L25.333638,13.907376 L26.0814925,14.0640456 L26.9235811,12.6283051 L26.8171703,13.6344507 L27.6163855,13.7445532 L28.1108754,12.0970975 C29.0875526,12.6943716 30.1695969,13.4911925 31.1352615,13.0603634 C31.4560488,13.8351608 31.7044918,14.6797115 31.8660209,15.5878634 L32.0728197,16.7555342 L32.4352513,16.7335137 L32.6052627,17.3394017 C33.0324608,17.2831199 33.4070032,17.2757365 33.7742311,17.269584 C33.7178197,18.1202865 33.5833653,18.8362802 33.3703488,19.4054447 C33.1476178,19.9868511 32.8441235,20.3699447 32.4596083,20.5119131 L31.829433,20.7481156 L31.6567665,21.4310777 C30.8269817,24.717508 29.715526,27.100584 28.2272032,28.7689258 C26.8244944,30.3442359 25.0425197,31.3160523 22.8001842,31.857046 C20.827083,31.4604827 19.0890134,30.5399574 17.6447285,28.9696409 C16.0940323,27.2805397 14.8577096,24.8277106 13.9972918,21.4629954 L13.8136146,20.744546 L13.1465197,20.5254422 C12.7537127,20.3957156 12.4428994,20.0199416 12.2175766,19.4409992 C11.9923197,18.8682068 11.8528779,18.1362207 11.7965317,17.2634928 C12.4107595,17.1643671 13.0962658,16.9794937 13.4341772,17.2157595 Z" id="Shape"></path>
                    <path d="M43.8106329,42.3256962 L49.9390696,26.8987342 L48.4605886,26.2341013 L44.2989684,36.7102405 L42.9077278,40.0826203 C41.9326076,37.920981 40.7436962,36.0237848 39.3948734,34.6684873 L38.9798513,34.2535949 L38.4204652,34.2719885 L31.8207816,34.5118177 L31.8207816,37.4016215 L37.9210475,37.178955 C39.5074335,38.9805563 40.8414842,41.7822145 41.7631108,44.840917 C42.6798133,47.8691892 43.1719082,51.1102841 43.0985285,53.8421828 L2.80379747,53.8421519 C2.9139,51.450462 3.20891013,48.5605949 3.9078038,45.7332278 C4.6813038,42.594981 5.95189241,39.5496076 8.02408228,37.4310127 L13.5551835,37.4823075 L13.5551835,34.5961936 L7.50996835,34.539847 L6.99831519,34.5373859 L6.60427785,34.897227 C3.83811329,37.4614485 2.21753101,41.195803 1.27498671,45.0072903 C0.36683481,48.703822 0.0926765823,52.4809612 0.0412525316,55.2632397 L0.0119134177,56.7392587 L1.39875519,56.7392587 L44.3690506,56.7393038 L45.5893734,56.7393038 L45.7227272,55.4443671 C46.0630089,52.0943354 45.5244778,47.8483544 44.3481956,43.9572785 C44.1820253,43.4062658 44.0024684,42.861519 43.8106329,42.3256962 Z" id="Shape"></path>
                </g>
            </g>
            <g id="Group-2" transform="translate(100.000000, 0.000000)">
                <circle id="bg" fill="#DDECFF" cx="45" cy="45" r="45"></circle>
                <g id="分组学习&amp;-班级成员" transform="translate(21.000000, 17.000000)" fill-rule="nonzero" fill="#569FFC">
                    <path d="M41.0255989,51.3294585 C40.5547135,51.4864203 40.0838281,51.1724967 39.9268663,50.7016113 C39.7699045,50.2307259 40.0838281,49.7598405 40.5547135,49.6028787 L40.7116753,49.6028787 C44.1648348,48.8180697 45.7344528,48.0332607 45.7344528,47.4054136 C45.7344528,40.6560563 41.3395224,34.5345462 35.2180124,32.0231574 C34.747127,31.8661957 34.4332034,31.5522721 34.4332034,30.9244249 C34.4332034,30.6105013 34.5901652,30.4535395 34.747127,30.1396159 C38.5142101,26.0586092 41.4964842,18.3674811 41.4964843,13.5016654 C41.4964843,7.38015532 36.1597832,1.72953062 29.8813113,1.72953067 L28.7825787,1.72953067 C28.3116933,1.72953067 27.9977697,1.41560707 27.9977697,0.944721683 C27.9977697,0.630798076 28.1547315,0.316874469 28.4686551,0.159912694 C28.4686551,0.159912694 28.7825787,0.00295091792 29.8813113,0.00295086243 C37.101554,-0.154010913 43.0661023,5.96749917 43.0661023,13.3447036 C43.0661023,18.2105193 40.5547135,26.0586092 36.6306686,30.6105013 C42.9091404,32.9649283 47.147109,38.9294765 47.931918,45.8357956 C48.2458416,48.9750315 44.9496438,50.5446495 41.0255989,51.3294585 L41.0255989,51.3294585 Z M31.6078911,18.0535575 C31.6078911,22.9193732 29.0965023,30.7674631 25.1724574,35.3193552 C31.4509292,37.6737822 35.6888978,43.6383305 36.4737068,50.5446495 C37.2585158,56.5091978 22.8180305,56.8231214 18.2661383,56.8231214 C13.7142461,56.8231214 0.372493484,56.352236 0.0585698775,51.6433821 C-0.412315505,44.2661776 5.55223275,37.0459349 11.6737428,35.3193552 C7.59273611,30.6105013 5.08134737,22.7624114 5.08134737,17.8965957 C5.08134737,10.6763531 11.0458957,4.86876658 18.4231001,4.86876658 C25.8003046,4.86876658 31.6078911,10.8333149 31.6078911,18.0535575 L31.6078911,18.0535575 Z M1.94211141,51.9573057 C1.94211141,52.8990764 6.9648889,55.0965416 18.1091765,55.0965416 C29.2534642,55.0965416 34.2762416,52.8990765 34.2762416,51.9573057 C34.2762416,45.2079484 29.8813113,39.0864383 23.7598012,36.5750496 C22.1901833,38.1446676 20.3066417,39.0864383 18.2661383,39.0864383 C16.2256349,39.0864383 14.4990552,38.1446676 12.7724754,36.5750496 C5.86615636,38.7725147 1.62818786,45.2079484 1.94211141,51.9573057 L1.94211141,51.9573057 Z M18.4231001,6.28142278 C12.1446283,6.28142278 6.65096535,11.6181239 6.65096535,17.8965957 C6.65096535,24.9598766 12.9294372,37.5168204 18.4231001,37.5168204 C23.9167631,37.5168204 30.0382731,25.1168384 30.0382731,18.0535575 C30.0382731,11.9320474 24.701572,6.28142272 18.4231001,6.28142278 L18.4231001,6.28142278 Z M17.1674058,10.3624295 C13.5572844,10.3624295 10.7319721,13.1877419 10.7319721,16.7978631 C10.7319721,17.2687485 10.4180485,17.5826721 9.94716308,17.5826721 C9.4762777,17.5826721 9.16235409,17.2687485 9.16235409,16.7978631 C9.16235409,12.4029328 12.7724754,8.79281147 17.1674058,8.79281152 C17.6382911,8.79281152 17.9522148,9.10673513 17.9522147,9.57762051 C17.9522146,10.0485059 17.6382911,10.3624295 17.1674058,10.3624295 Z M10.8889338,19.3092519 C11.0458956,19.4662137 11.2028575,19.6231755 11.2028575,19.9370991 C11.2028575,20.0940609 11.0458957,20.4079845 10.8889338,20.5649463 C10.731972,20.7219081 10.4180485,20.7219081 10.2610867,20.7219081 C10.1041249,20.7219081 9.7902013,20.5649463 9.63323947,20.5649463 C9.31931587,20.2510227 9.31931587,19.7801373 9.63323947,19.4662137 C10.1041249,18.9953283 10.5750102,18.9953283 10.8889338,19.3092519 Z" id="Shape"></path>
                </g>
            </g>
            <g id="Group-3" transform="translate(200.000000, 0.000000)">
                <circle id="bg" fill="#DDECFF" cx="45" cy="45" r="45"></circle>
                <g id="工作" transform="translate(22.000000, 13.000000)" fill-rule="nonzero" fill="#569FFC">
                    <path d="M11.8744872,18.0921538 C11.157359,12.5438462 11.0818718,7.41071795 11.8367436,2.806 C21.8765385,-4.02558974 26.6322308,4.01379487 34.2941795,2.806 C34.8980769,7.5994359 34.6716154,14.0535897 33.9544872,17.8656923 C33.5015641,20.3945128 32.4447436,22.6591282 30.9727436,24.4708205 C28.8968462,26.999641 26.0660769,28.5848718 22.8956154,28.5848718 C19.7251538,28.5848718 16.856641,26.999641 14.8184872,24.4708205 C13.3842308,22.7346154 12.3651538,20.5454872 11.8744872,18.0921538 L11.8744872,18.0921538 Z M6.81684615,61.4972821 L39.9557179,61.4972821 L37.9930513,64.3657949 L8.43982051,64.3657949 L6.81684615,61.4972821 Z M41.7296667,36.8129744 L45.3907949,50.7026154 C46.6740769,55.5715385 46.0701795,59.0439487 40.4463846,59.0439487 L39.2008462,59.0439487 L39.2008462,39.9456923 L24.3298718,39.9456923 L28.5948974,30.132359 L30.1423846,28.9245641 L38.5214615,31.0004615 L38.936641,31.1136923 L39.2008462,31.4533846 C40.4463846,33.076359 41.239,34.8880513 41.6541795,36.8507179 L41.7296667,36.8129744 L41.7296667,36.8129744 Z M7.79817949,59.0439487 L5.5335641,59.0439487 C-0.0524871795,59.0439487 -0.656384615,55.5715385 0.589153846,50.7026154 L4.25028205,36.8129744 C4.74094872,34.5106154 5.79776923,32.6989231 7.30751282,31.3024103 L7.53397436,31.1136923 L7.83592308,31.0382051 L15.9130513,28.9623077 L17.4982821,30.1701026 L22.1407436,39.9834359 L7.79817949,39.9834359 L7.79817949,59.0439487 Z" id="Shape"></path>
                </g>
            </g>
        </g>
    </g>
</svg>